<svg width="616" height="117" viewBox="0 0 616 117" fill="none" xmlns="http://www.w3.org/2000/svg">
<mask id="path-1-outside-1_10_9" maskUnits="userSpaceOnUse" x="0.376007" y="0.119995" width="615" height="117" fill="black">
<rect fill="white" x="0.376007" y="0.119995" width="615" height="117"/>
<path d="M1.37601 3.99999H5.98401C23.168 3.99999 36.416 8.70399 45.728 18.112C55.136 27.424 59.84 40.72 59.84 58C59.84 67.888 57.44 76.96 52.64 85.216C47.84 93.472 41.312 100 33.056 104.8C24.896 109.6 15.872 112 5.98401 112H1.37601V3.99999ZM7.13601 107.536C15.968 107.536 24.032 105.376 31.328 101.056C38.624 96.64 44.384 90.64 48.608 83.056C52.928 75.472 55.088 67.12 55.088 58C55.088 42.064 50.912 29.824 42.56 21.28C34.304 12.64 22.496 8.32 7.13601 8.32H5.98401V107.536H7.13601Z"/>
<path d="M79.4229 3.99999H118.159V8.176H84.1749V66.928H112.543V71.104H84.1749V107.824H118.159V112H79.4229V3.99999Z"/>
<path d="M220.69 3.99999L171.298 114.448L121.906 3.99999H127.09L171.73 103.504L215.794 3.99999H220.69Z"/>
<path d="M232.001 3.99999H270.737V8.176H236.753V66.928H265.121V71.104H236.753V107.824H270.737V112H232.001V3.99999Z"/>
<path d="M285.86 3.99999H290.612V107.824H324.02V112H285.86V3.99999Z"/>
<path d="M382.834 114.88C372.754 114.88 363.394 112.24 354.754 106.96C346.114 101.68 339.25 94.672 334.162 85.936C329.17 77.104 326.674 67.648 326.674 57.568C326.674 47.584 329.218 38.272 334.306 29.632C339.394 20.896 346.258 13.984 354.898 8.896C363.538 3.71199 372.898 1.12 382.978 1.12C393.154 1.12 402.514 3.664 411.058 8.752C419.602 13.84 426.37 20.752 431.362 29.488C436.45 38.128 438.994 47.488 438.994 57.568C438.994 67.936 436.45 77.536 431.362 86.368C426.37 95.104 419.554 102.064 410.914 107.248C402.37 112.336 393.01 114.88 382.834 114.88ZM382.834 110.704C392.05 110.704 400.594 108.352 408.466 103.648C416.338 98.848 422.578 92.416 427.186 84.352C431.89 76.192 434.242 67.36 434.242 57.856C434.242 48.448 431.938 39.712 427.33 31.648C422.722 23.584 416.482 17.2 408.61 12.496C400.738 7.69599 392.194 5.29599 382.978 5.29599C373.666 5.29599 365.074 7.69599 357.202 12.496C349.33 17.2 343.042 23.584 338.338 31.648C333.73 39.712 331.426 48.448 331.426 57.856C331.426 67.36 333.73 76.192 338.338 84.352C343.042 92.416 349.33 98.848 357.202 103.648C365.074 108.352 373.618 110.704 382.834 110.704Z"/>
<path d="M458.404 3.99999H463.156C474.484 3.99999 483.316 7.02399 489.652 13.072C495.988 19.024 499.156 27.04 499.156 37.12C499.156 44.128 497.62 50.368 494.548 55.84C491.476 61.216 487.3 65.392 482.02 68.368C476.74 71.248 470.836 72.688 464.308 72.688H463.156V112H458.404V3.99999ZM464.596 68.512C473.332 68.512 480.484 65.824 486.052 60.448C491.62 54.976 494.404 47.296 494.404 37.408C494.404 28 491.764 20.8 486.484 15.808C481.3 10.72 473.908 8.176 464.308 8.176H463.156V68.512H464.596Z"/>
<path d="M515.642 3.99999H554.378V8.176H520.394V66.928H548.762V71.104H520.394V107.824H554.378V112H515.642V3.99999Z"/>
<path d="M569.501 3.99999H575.693C586.925 3.99999 595.565 6.97599 601.613 12.928C607.757 18.88 610.829 27.376 610.829 38.416C610.829 44.752 609.293 50.56 606.221 55.84C603.245 61.12 599.165 65.296 593.981 68.368C588.797 71.344 583.085 72.832 576.845 72.832H575.837L612.989 112H606.797L574.109 77.728V112H569.501V3.99999ZM576.701 68.656C582.173 68.656 587.165 67.312 591.677 64.624C596.189 61.936 599.741 58.336 602.333 53.824C604.925 49.216 606.221 44.128 606.221 38.56C606.221 28.864 603.581 21.376 598.301 16.096C593.117 10.816 585.677 8.176 575.981 8.176H574.109V68.656H576.701Z"/>
</mask>
<path d="M1.37601 3.99999H5.98401C23.168 3.99999 36.416 8.70399 45.728 18.112C55.136 27.424 59.84 40.72 59.84 58C59.84 67.888 57.44 76.96 52.64 85.216C47.84 93.472 41.312 100 33.056 104.8C24.896 109.6 15.872 112 5.98401 112H1.37601V3.99999ZM7.13601 107.536C15.968 107.536 24.032 105.376 31.328 101.056C38.624 96.64 44.384 90.64 48.608 83.056C52.928 75.472 55.088 67.12 55.088 58C55.088 42.064 50.912 29.824 42.56 21.28C34.304 12.64 22.496 8.32 7.13601 8.32H5.98401V107.536H7.13601Z" stroke="#EEECEC" stroke-width="2" mask="url(#path-1-outside-1_10_9)"/>
<path d="M79.4229 3.99999H118.159V8.176H84.1749V66.928H112.543V71.104H84.1749V107.824H118.159V112H79.4229V3.99999Z" stroke="#EEECEC" stroke-width="2" mask="url(#path-1-outside-1_10_9)"/>
<path d="M220.69 3.99999L171.298 114.448L121.906 3.99999H127.09L171.73 103.504L215.794 3.99999H220.69Z" stroke="#EEECEC" stroke-width="2" mask="url(#path-1-outside-1_10_9)"/>
<path d="M232.001 3.99999H270.737V8.176H236.753V66.928H265.121V71.104H236.753V107.824H270.737V112H232.001V3.99999Z" stroke="#EEECEC" stroke-width="2" mask="url(#path-1-outside-1_10_9)"/>
<path d="M285.86 3.99999H290.612V107.824H324.02V112H285.86V3.99999Z" stroke="#EEECEC" stroke-width="2" mask="url(#path-1-outside-1_10_9)"/>
<path d="M382.834 114.88C372.754 114.88 363.394 112.24 354.754 106.96C346.114 101.68 339.25 94.672 334.162 85.936C329.17 77.104 326.674 67.648 326.674 57.568C326.674 47.584 329.218 38.272 334.306 29.632C339.394 20.896 346.258 13.984 354.898 8.896C363.538 3.71199 372.898 1.12 382.978 1.12C393.154 1.12 402.514 3.664 411.058 8.752C419.602 13.84 426.37 20.752 431.362 29.488C436.45 38.128 438.994 47.488 438.994 57.568C438.994 67.936 436.45 77.536 431.362 86.368C426.37 95.104 419.554 102.064 410.914 107.248C402.37 112.336 393.01 114.88 382.834 114.88ZM382.834 110.704C392.05 110.704 400.594 108.352 408.466 103.648C416.338 98.848 422.578 92.416 427.186 84.352C431.89 76.192 434.242 67.36 434.242 57.856C434.242 48.448 431.938 39.712 427.33 31.648C422.722 23.584 416.482 17.2 408.61 12.496C400.738 7.69599 392.194 5.29599 382.978 5.29599C373.666 5.29599 365.074 7.69599 357.202 12.496C349.33 17.2 343.042 23.584 338.338 31.648C333.73 39.712 331.426 48.448 331.426 57.856C331.426 67.36 333.73 76.192 338.338 84.352C343.042 92.416 349.33 98.848 357.202 103.648C365.074 108.352 373.618 110.704 382.834 110.704Z" stroke="#EEECEC" stroke-width="2" mask="url(#path-1-outside-1_10_9)"/>
<path d="M458.404 3.99999H463.156C474.484 3.99999 483.316 7.02399 489.652 13.072C495.988 19.024 499.156 27.04 499.156 37.12C499.156 44.128 497.62 50.368 494.548 55.84C491.476 61.216 487.3 65.392 482.02 68.368C476.74 71.248 470.836 72.688 464.308 72.688H463.156V112H458.404V3.99999ZM464.596 68.512C473.332 68.512 480.484 65.824 486.052 60.448C491.62 54.976 494.404 47.296 494.404 37.408C494.404 28 491.764 20.8 486.484 15.808C481.3 10.72 473.908 8.176 464.308 8.176H463.156V68.512H464.596Z" stroke="#EEECEC" stroke-width="2" mask="url(#path-1-outside-1_10_9)"/>
<path d="M515.642 3.99999H554.378V8.176H520.394V66.928H548.762V71.104H520.394V107.824H554.378V112H515.642V3.99999Z" stroke="#EEECEC" stroke-width="2" mask="url(#path-1-outside-1_10_9)"/>
<path d="M569.501 3.99999H575.693C586.925 3.99999 595.565 6.97599 601.613 12.928C607.757 18.88 610.829 27.376 610.829 38.416C610.829 44.752 609.293 50.56 606.221 55.84C603.245 61.12 599.165 65.296 593.981 68.368C588.797 71.344 583.085 72.832 576.845 72.832H575.837L612.989 112H606.797L574.109 77.728V112H569.501V3.99999ZM576.701 68.656C582.173 68.656 587.165 67.312 591.677 64.624C596.189 61.936 599.741 58.336 602.333 53.824C604.925 49.216 606.221 44.128 606.221 38.56C606.221 28.864 603.581 21.376 598.301 16.096C593.117 10.816 585.677 8.176 575.981 8.176H574.109V68.656H576.701Z" stroke="#EEECEC" stroke-width="2" mask="url(#path-1-outside-1_10_9)"/>
</svg>
