                    <svg class="svg-front" width="794" height="106" viewBox="0 0 794 106" fill="none"
                        xmlns="http://www.w3.org/2000/svg">
                        <mask id="path-1-outside-1_7_3" maskUnits="userSpaceOnUse" x="0.0880127" y="0.47998" width="794"
                            height="105" fill="black">
                            <rect fill="white" x="0.0880127" y="0.47998" width="794" height="105" />
                            <path
                                d="M57.824 2.63198V13.288H14.192V47.128H49.616V57.784H14.192V103H1.08801V2.63198H57.824Z" />
                            <path
                                d="M126.499 103L102.595 61.96H86.7545V103H73.6505V2.63198H106.051C113.635 2.63198 120.019 3.92798 125.203 6.51998C130.483 9.11198 134.419 12.616 137.011 17.032C139.603 21.448 140.899 26.488 140.899 32.152C140.899 39.064 138.883 45.16 134.851 50.44C130.915 55.72 124.963 59.224 116.995 60.952L142.195 103H126.499ZM86.7545 51.448H106.051C113.155 51.448 118.483 49.72 122.035 46.264C125.587 42.712 127.363 38.008 127.363 32.152C127.363 26.2 125.587 21.592 122.035 18.328C118.579 15.064 113.251 13.432 106.051 13.432H86.7545V51.448Z" />
                            <path
                                d="M206.764 104.008C197.452 104.008 188.956 101.848 181.276 97.528C173.596 93.112 167.5 87.016 162.988 79.24C158.572 71.368 156.364 62.536 156.364 52.744C156.364 42.952 158.572 34.168 162.988 26.392C167.5 18.52 173.596 12.424 181.276 8.10398C188.956 3.68798 197.452 1.47998 206.764 1.47998C216.172 1.47998 224.716 3.68798 232.396 8.10398C240.076 12.424 246.124 18.472 250.54 26.248C254.956 34.024 257.164 42.856 257.164 52.744C257.164 62.632 254.956 71.464 250.54 79.24C246.124 87.016 240.076 93.112 232.396 97.528C224.716 101.848 216.172 104.008 206.764 104.008ZM206.764 92.632C213.772 92.632 220.06 91 225.628 87.736C231.292 84.472 235.708 79.816 238.876 73.768C242.14 67.72 243.772 60.712 243.772 52.744C243.772 44.68 242.14 37.672 238.876 31.72C235.708 25.672 231.34 21.016 225.772 17.752C220.204 14.488 213.868 12.856 206.764 12.856C199.66 12.856 193.324 14.488 187.756 17.752C182.188 21.016 177.772 25.672 174.508 31.72C171.34 37.672 169.756 44.68 169.756 52.744C169.756 60.712 171.34 67.72 174.508 73.768C177.772 79.816 182.188 84.472 187.756 87.736C193.42 91 199.756 92.632 206.764 92.632Z" />
                            <path
                                d="M353.375 103H340.271L287.567 23.08V103H274.463V2.48798H287.567L340.271 82.264V2.48798H353.375V103Z" />
                            <path d="M437.489 2.63198V13.288H410.129V103H397.025V13.288H369.521V2.63198H437.489Z" />
                            <path d="M508.339 44.68V55.768H450.883V44.68H508.339Z" />
                            <path
                                d="M546.036 13.288V46.84H582.612V57.64H546.036V92.2H586.932V103H532.932V2.48798H586.932V13.288H546.036Z" />
                            <path
                                d="M685.672 103H672.568L619.864 23.08V103H606.76V2.48798H619.864L672.568 82.264V2.48798H685.672V103Z" />
                            <path
                                d="M739.258 2.63198C750.202 2.63198 759.658 4.69598 767.626 8.82398C775.69 12.856 781.834 18.664 786.058 26.248C790.378 33.832 792.538 42.76 792.538 53.032C792.538 63.304 790.378 72.232 786.058 79.816C781.834 87.304 775.69 93.064 767.626 97.096C759.658 101.032 750.202 103 739.258 103H708.01V2.63198H739.258ZM739.258 92.2C752.218 92.2 762.106 88.792 768.922 81.976C775.738 75.064 779.146 65.416 779.146 53.032C779.146 40.552 775.69 30.808 768.778 23.8C761.962 16.792 752.122 13.288 739.258 13.288H721.114V92.2H739.258Z" />
                        </mask>
                        <path d="M57.824 2.63198V13.288H14.192V47.128H49.616V57.784H14.192V103H1.08801V2.63198H57.824Z"
                            stroke="#FCFCFC" stroke-width="2" mask="url(#path-1-outside-1_7_3)" />
                        <path
                            d="M126.499 103L102.595 61.96H86.7545V103H73.6505V2.63198H106.051C113.635 2.63198 120.019 3.92798 125.203 6.51998C130.483 9.11198 134.419 12.616 137.011 17.032C139.603 21.448 140.899 26.488 140.899 32.152C140.899 39.064 138.883 45.16 134.851 50.44C130.915 55.72 124.963 59.224 116.995 60.952L142.195 103H126.499ZM86.7545 51.448H106.051C113.155 51.448 118.483 49.72 122.035 46.264C125.587 42.712 127.363 38.008 127.363 32.152C127.363 26.2 125.587 21.592 122.035 18.328C118.579 15.064 113.251 13.432 106.051 13.432H86.7545V51.448Z"
                            stroke="#FCFCFC" stroke-width="2" mask="url(#path-1-outside-1_7_3)" />
                        <path
                            d="M206.764 104.008C197.452 104.008 188.956 101.848 181.276 97.528C173.596 93.112 167.5 87.016 162.988 79.24C158.572 71.368 156.364 62.536 156.364 52.744C156.364 42.952 158.572 34.168 162.988 26.392C167.5 18.52 173.596 12.424 181.276 8.10398C188.956 3.68798 197.452 1.47998 206.764 1.47998C216.172 1.47998 224.716 3.68798 232.396 8.10398C240.076 12.424 246.124 18.472 250.54 26.248C254.956 34.024 257.164 42.856 257.164 52.744C257.164 62.632 254.956 71.464 250.54 79.24C246.124 87.016 240.076 93.112 232.396 97.528C224.716 101.848 216.172 104.008 206.764 104.008ZM206.764 92.632C213.772 92.632 220.06 91 225.628 87.736C231.292 84.472 235.708 79.816 238.876 73.768C242.14 67.72 243.772 60.712 243.772 52.744C243.772 44.68 242.14 37.672 238.876 31.72C235.708 25.672 231.34 21.016 225.772 17.752C220.204 14.488 213.868 12.856 206.764 12.856C199.66 12.856 193.324 14.488 187.756 17.752C182.188 21.016 177.772 25.672 174.508 31.72C171.34 37.672 169.756 44.68 169.756 52.744C169.756 60.712 171.34 67.72 174.508 73.768C177.772 79.816 182.188 84.472 187.756 87.736C193.42 91 199.756 92.632 206.764 92.632Z"
                            stroke="#FCFCFC" stroke-width="2" mask="url(#path-1-outside-1_7_3)" />
                        <path
                            d="M353.375 103H340.271L287.567 23.08V103H274.463V2.48798H287.567L340.271 82.264V2.48798H353.375V103Z"
                            stroke="#FCFCFC" stroke-width="2" mask="url(#path-1-outside-1_7_3)" />
                        <path d="M437.489 2.63198V13.288H410.129V103H397.025V13.288H369.521V2.63198H437.489Z"
                            stroke="#FCFCFC" stroke-width="2" mask="url(#path-1-outside-1_7_3)" />
                        <path d="M508.339 44.68V55.768H450.883V44.68H508.339Z" stroke="#FCFCFC" stroke-width="2"
                            mask="url(#path-1-outside-1_7_3)" />
                        <path
                            d="M546.036 13.288V46.84H582.612V57.64H546.036V92.2H586.932V103H532.932V2.48798H586.932V13.288H546.036Z"
                            stroke="#FCFCFC" stroke-width="2" mask="url(#path-1-outside-1_7_3)" />
                        <path
                            d="M685.672 103H672.568L619.864 23.08V103H606.76V2.48798H619.864L672.568 82.264V2.48798H685.672V103Z"
                            stroke="#FCFCFC" stroke-width="2" mask="url(#path-1-outside-1_7_3)" />
                        <path
                            d="M739.258 2.63198C750.202 2.63198 759.658 4.69598 767.626 8.82398C775.69 12.856 781.834 18.664 786.058 26.248C790.378 33.832 792.538 42.76 792.538 53.032C792.538 63.304 790.378 72.232 786.058 79.816C781.834 87.304 775.69 93.064 767.626 97.096C759.658 101.032 750.202 103 739.258 103H708.01V2.63198H739.258ZM739.258 92.2C752.218 92.2 762.106 88.792 768.922 81.976C775.738 75.064 779.146 65.416 779.146 53.032C779.146 40.552 775.69 30.808 768.778 23.8C761.962 16.792 752.122 13.288 739.258 13.288H721.114V92.2H739.258Z"
                            stroke="#FCFCFC" stroke-width="2" mask="url(#path-1-outside-1_7_3)" />
                    </svg>
