<svg class="svg-front" width="671" height="118" viewBox="0 0 671 118" fill="none"
                        xmlns="http://www.w3.org/2000/svg">
                        <mask id="path-1-outside-1_9_7" maskUnits="userSpaceOnUse" x="0.376007" y="0.119995" width="671"
                            height="118" fill="black">
                            <rect fill="white" x="0.376007" y="0.119995" width="671" height="118" />
                            <path
                                d="M1.37601 4.99999H39.824V9.176H6.12801V67.64H34.208V71.816H6.12801V113H1.37601V4.99999Z" />
                            <path
                                d="M54.9541 4.99999H61.1461C72.3781 4.99999 81.0181 7.97599 87.0661 13.928C93.2101 19.88 96.2821 28.376 96.2821 39.416C96.2821 45.752 94.7461 51.56 91.6741 56.84C88.6981 62.12 84.6181 66.296 79.4341 69.368C74.2501 72.344 68.5381 73.832 62.2981 73.832H61.2901L98.4421 113H92.2501L59.5621 78.728V113H54.9541V4.99999ZM62.1541 69.656C67.6261 69.656 72.6181 68.312 77.1301 65.624C81.6421 62.936 85.1941 59.336 87.7861 54.824C90.3781 50.216 91.6741 45.128 91.6741 39.56C91.6741 29.864 89.0341 22.376 83.7541 17.096C78.5701 11.816 71.1301 9.176 61.4341 9.176H59.5621V69.656H62.1541Z" />
                            <path
                                d="M165.99 115.88C155.91 115.88 146.551 113.24 137.911 107.96C129.271 102.68 122.407 95.672 117.319 86.936C112.327 78.104 109.831 68.648 109.831 58.568C109.831 48.584 112.375 39.272 117.463 30.632C122.551 21.896 129.415 14.984 138.055 9.896C146.695 4.71199 156.055 2.12 166.135 2.12C176.311 2.12 185.671 4.664 194.215 9.752C202.759 14.84 209.527 21.752 214.519 30.488C219.607 39.128 222.15 48.488 222.15 58.568C222.15 68.936 219.607 78.536 214.519 87.368C209.527 96.104 202.711 103.064 194.071 108.248C185.527 113.336 176.166 115.88 165.99 115.88ZM165.99 111.704C175.206 111.704 183.751 109.352 191.622 104.648C199.494 99.848 205.735 93.416 210.343 85.352C215.047 77.192 217.398 68.36 217.398 58.856C217.398 49.448 215.095 40.712 210.487 32.648C205.879 24.584 199.639 18.2 191.767 13.496C183.895 8.69599 175.351 6.29599 166.135 6.29599C156.823 6.29599 148.231 8.69599 140.359 13.496C132.487 18.2 126.199 24.584 121.495 32.648C116.887 40.712 114.583 49.448 114.583 58.856C114.583 68.36 116.887 77.192 121.495 85.352C126.199 93.416 132.487 99.848 140.359 104.648C148.231 109.352 156.774 111.704 165.99 111.704Z" />
                            <path
                                d="M245.88 15.8V113H241.704V3.41599L321.192 102.056V4.99999H325.368V114.584L245.88 15.8Z" />
                            <path d="M364.717 9.176H339.805V4.99999H394.093V9.176H369.469V113H364.717V9.176Z" />
                            <path d="M389.088 68.072H433.872V72.536H389.088V68.072Z" />
                            <path
                                d="M450.954 4.99999H489.69V9.176H455.706V67.928H484.074V72.104H455.706V108.824H489.69V113H450.954V4.99999Z" />
                            <path
                                d="M508.99 15.8V113H504.813V3.41599L584.302 102.056V4.99999H588.478V114.584L508.99 15.8Z" />
                            <path
                                d="M611.267 4.99999H615.875C633.059 4.99999 646.307 9.70399 655.619 19.112C665.027 28.424 669.731 41.72 669.731 59C669.731 68.888 667.331 77.96 662.531 86.216C657.731 94.472 651.203 101 642.947 105.8C634.787 110.6 625.763 113 615.875 113H611.267V4.99999ZM617.027 108.536C625.859 108.536 633.923 106.376 641.219 102.056C648.515 97.64 654.275 91.64 658.499 84.056C662.819 76.472 664.979 68.12 664.979 59C664.979 43.064 660.803 30.824 652.451 22.28C644.195 13.64 632.387 9.32 617.027 9.32H615.875V108.536H617.027Z" />
                        </mask>
                        <path d="M1.37601 4.99999H39.824V9.176H6.12801V67.64H34.208V71.816H6.12801V113H1.37601V4.99999Z"
                            stroke="#F7F7F7" stroke-width="2" mask="url(#path-1-outside-1_9_7)" />
                        <path
                            d="M54.9541 4.99999H61.1461C72.3781 4.99999 81.0181 7.97599 87.0661 13.928C93.2101 19.88 96.2821 28.376 96.2821 39.416C96.2821 45.752 94.7461 51.56 91.6741 56.84C88.6981 62.12 84.6181 66.296 79.4341 69.368C74.2501 72.344 68.5381 73.832 62.2981 73.832H61.2901L98.4421 113H92.2501L59.5621 78.728V113H54.9541V4.99999ZM62.1541 69.656C67.6261 69.656 72.6181 68.312 77.1301 65.624C81.6421 62.936 85.1941 59.336 87.7861 54.824C90.3781 50.216 91.6741 45.128 91.6741 39.56C91.6741 29.864 89.0341 22.376 83.7541 17.096C78.5701 11.816 71.1301 9.176 61.4341 9.176H59.5621V69.656H62.1541Z"
                            stroke="#F7F7F7" stroke-width="2" mask="url(#path-1-outside-1_9_7)" />
                        <path
                            d="M165.99 115.88C155.91 115.88 146.551 113.24 137.911 107.96C129.271 102.68 122.407 95.672 117.319 86.936C112.327 78.104 109.831 68.648 109.831 58.568C109.831 48.584 112.375 39.272 117.463 30.632C122.551 21.896 129.415 14.984 138.055 9.896C146.695 4.71199 156.055 2.12 166.135 2.12C176.311 2.12 185.671 4.664 194.215 9.752C202.759 14.84 209.527 21.752 214.519 30.488C219.607 39.128 222.15 48.488 222.15 58.568C222.15 68.936 219.607 78.536 214.519 87.368C209.527 96.104 202.711 103.064 194.071 108.248C185.527 113.336 176.166 115.88 165.99 115.88ZM165.99 111.704C175.206 111.704 183.751 109.352 191.622 104.648C199.494 99.848 205.735 93.416 210.343 85.352C215.047 77.192 217.398 68.36 217.398 58.856C217.398 49.448 215.095 40.712 210.487 32.648C205.879 24.584 199.639 18.2 191.767 13.496C183.895 8.69599 175.351 6.29599 166.135 6.29599C156.823 6.29599 148.231 8.69599 140.359 13.496C132.487 18.2 126.199 24.584 121.495 32.648C116.887 40.712 114.583 49.448 114.583 58.856C114.583 68.36 116.887 77.192 121.495 85.352C126.199 93.416 132.487 99.848 140.359 104.648C148.231 109.352 156.774 111.704 165.99 111.704Z"
                            stroke="#F7F7F7" stroke-width="2" mask="url(#path-1-outside-1_9_7)" />
                        <path d="M245.88 15.8V113H241.704V3.41599L321.192 102.056V4.99999H325.368V114.584L245.88 15.8Z"
                            stroke="#F7F7F7" stroke-width="2" mask="url(#path-1-outside-1_9_7)" />
                        <path d="M364.717 9.176H339.805V4.99999H394.093V9.176H369.469V113H364.717V9.176Z"
                            stroke="#F7F7F7" stroke-width="2" mask="url(#path-1-outside-1_9_7)" />
                        <path d="M389.088 68.072H433.872V72.536H389.088V68.072Z" stroke="#F7F7F7" stroke-width="2"
                            mask="url(#path-1-outside-1_9_7)" />
                        <path
                            d="M450.954 4.99999H489.69V9.176H455.706V67.928H484.074V72.104H455.706V108.824H489.69V113H450.954V4.99999Z"
                            stroke="#F7F7F7" stroke-width="2" mask="url(#path-1-outside-1_9_7)" />
                        <path d="M508.99 15.8V113H504.813V3.41599L584.302 102.056V4.99999H588.478V114.584L508.99 15.8Z"
                            stroke="#F7F7F7" stroke-width="2" mask="url(#path-1-outside-1_9_7)" />
                        <path
                            d="M611.267 4.99999H615.875C633.059 4.99999 646.307 9.70399 655.619 19.112C665.027 28.424 669.731 41.72 669.731 59C669.731 68.888 667.331 77.96 662.531 86.216C657.731 94.472 651.203 101 642.947 105.8C634.787 110.6 625.763 113 615.875 113H611.267V4.99999ZM617.027 108.536C625.859 108.536 633.923 106.376 641.219 102.056C648.515 97.64 654.275 91.64 658.499 84.056C662.819 76.472 664.979 68.12 664.979 59C664.979 43.064 660.803 30.824 652.451 22.28C644.195 13.64 632.387 9.32 617.027 9.32H615.875V108.536H617.027Z"
                            stroke="#F7F7F7" stroke-width="2" mask="url(#path-1-outside-1_9_7)" />
                    </svg>
