<svg width="305" height="112" viewBox="0 0 305 112" fill="none" xmlns="http://www.w3.org/2000/svg">
<path d="M143.633 6.3279L144.559 3.132H141.232H127.12H125.186L124.7 5.00346L105.034 80.7125L84.4606 4.97664L83.9595 3.132H82.048H67.36H65.4716L64.9553 4.94843L43.2887 81.1684L23.7012 5.00929L23.2184 3.132H21.28H7.31201H4.01786L4.90421 6.30467L32.9842 106.817L33.5 108.663L35.4168 108.644L49.9608 108.5L51.8025 108.482L52.3309 106.717L74.0844 34.0761L95.0542 106.694L95.5758 108.5H97.456H112.144H114.022L114.545 106.696L143.633 6.3279ZM207.752 49.84V47.34H205.252H171.176V18.788H209.572H212.072V16.288V5.48801V2.98801H209.572H155.572H153.072V5.48801V106V108.5H155.572H209.572H212.072V106V95.2V92.7H209.572H171.176V63.14H205.252H207.752V60.64V49.84ZM297.743 94.2479L297.751 94.2367L297.758 94.2254C300.611 89.6812 302.029 84.6087 302.029 79.072C302.029 74.6559 301.028 70.4801 299.029 66.5781C297.14 62.7046 294.508 59.4393 291.146 56.8092C289.727 55.6663 288.231 54.7057 286.663 53.9307C289.594 52.2419 292.132 50.1172 294.253 47.5478C297.948 43.0915 299.725 37.5543 299.725 31.12C299.725 25.8808 298.408 21.0965 295.745 16.835C293.048 12.5213 289.046 9.20161 283.887 6.82513C278.673 4.32644 272.481 3.132 265.401 3.132H229.401H226.901V5.632V106V108.5H229.401H266.841C273.842 108.5 280.029 107.3 285.329 104.806L285.338 104.802L285.348 104.797C290.69 102.229 294.865 98.7262 297.743 94.2479ZM279.045 66.5769L279.059 66.5887L279.074 66.6004C282.265 69.2334 283.924 72.8544 283.924 77.776C283.924 82.6319 282.339 86.1557 279.342 88.6797C276.287 91.2526 271.844 92.7 265.689 92.7H245.005V62.276H265.257C271.263 62.276 275.771 63.7933 279.045 66.5769ZM264.536 46.476H245.005V18.932H264.249C270.241 18.932 274.42 20.2967 277.166 22.6501C279.885 24.9814 281.332 28.2242 281.332 32.704C281.332 37.1838 279.885 40.4266 277.166 42.7579C274.408 45.1219 270.314 46.476 264.536 46.476Z" stroke="#FFFEFE" stroke-width="5"/>
</svg>
